<svg width="80" height="38" viewBox="0 0 80 38" fill="none" xmlns="http://www.w3.org/2000/svg">
<path fill-rule="evenodd" clip-rule="evenodd" d="M32.6929 34.0102C33.1115 34.0102 33.3523 34.0645 33.7115 34.0651L44.2213 33.6293C44.527 33.5966 44.8982 33.5595 45.2348 33.5271C49.5481 33.1141 54.9408 32.0645 59.0436 30.8699C61.1681 30.2516 62.6796 29.709 64.7563 28.8809C66.2044 28.3034 67.132 27.7797 68.4692 27.1228L70.8641 25.6933C71.7534 25.0882 72.2258 24.6721 73.0272 24.0321C73.6033 23.5724 74.654 22.4006 75.1123 21.7085C76.9151 18.9876 76.9943 16.3583 74.8718 13.6735L74.3847 13.098C74.132 12.7955 72.9208 11.7451 72.5861 11.542C73.0489 12.6662 73.3889 13.3499 73.2095 14.8195C73.0743 15.9285 72.6177 16.938 72.143 17.7304C71.5918 18.6516 71.0244 19.2871 70.4126 19.9837C69.7396 20.7499 68.1616 22.0778 67.2216 22.7423C66.8343 23.0164 66.4439 23.3042 66.0368 23.5752C57.8771 29.0079 46.0686 32.2645 36.2509 33.5758C35.674 33.6527 32.9641 33.8871 32.6929 34.0102Z" fill="white"/>
<path fill-rule="evenodd" clip-rule="evenodd" d="M32.6929 34.0102C33.1115 34.0102 33.3523 34.0645 33.7115 34.0651L44.2213 33.6293C44.527 33.5966 44.8982 33.5595 45.2348 33.5271C49.5481 33.1141 54.9408 32.0645 59.0436 30.8699C61.1681 30.2516 62.6796 29.709 64.7563 28.8809C66.2044 28.3034 67.132 27.7797 68.4692 27.1228L70.8641 25.6933C71.7534 25.0882 72.2258 24.6721 73.0272 24.0321C73.6033 23.5724 74.654 22.4006 75.1123 21.7085C76.9151 18.9876 76.9943 16.3583 74.8718 13.6735L74.3847 13.098C74.132 12.7955 72.9208 11.7451 72.5861 11.542C73.0489 12.6662 73.3889 13.3499 73.2095 14.8195C73.0743 15.9285 72.6177 16.938 72.143 17.7304C71.5918 18.6516 71.0244 19.2871 70.4126 19.9837C69.7396 20.7499 68.1616 22.0778 67.2216 22.7423C66.8343 23.0164 66.4439 23.3042 66.0368 23.5752C57.8771 29.0079 46.0686 32.2645 36.2509 33.5758C35.674 33.6527 32.9641 33.8871 32.6929 34.0102Z" fill="white"/>
<path fill-rule="evenodd" clip-rule="evenodd" d="M3.98569 23.918C4.27583 22.4326 5.05047 21.3504 5.86146 20.2332C6.12315 19.8726 6.48512 19.5388 6.76597 19.2275C10.0248 15.6171 16.3462 12.487 20.8457 10.7315C26.4457 8.54668 32.6105 6.94837 38.6891 5.99851C39.7806 5.82781 40.8902 5.6695 42.0009 5.53908C42.5395 5.47598 45.1575 5.27203 45.4071 5.16781C44.246 5.16781 42.6905 5.0788 41.5775 5.17091C39.9333 5.30696 37.7505 5.32471 36.1953 5.52499C35.882 5.56556 35.6175 5.57204 35.3116 5.59767C33.093 5.7833 29.9615 6.27288 27.7871 6.67795C23.6471 7.44866 18.2395 8.87429 14.4333 10.5867C14.0001 10.7816 13.5572 10.9689 13.122 11.1878C12.8893 11.305 12.6834 11.3813 12.4657 11.4878L10.6079 12.498C9.69047 12.9943 8.05329 14.1008 7.17132 14.8512C6.62935 15.3123 5.71836 16.2213 5.25977 16.7636C4.20259 18.0143 3.45357 19.5599 3.38428 21.1991V21.6937C3.39498 21.9456 3.42202 22.1994 3.46709 22.454C3.51639 22.7318 3.73385 23.487 3.86738 23.7529L3.90681 23.8239C3.96597 23.9149 3.91047 23.8498 3.98569 23.918Z" fill="white"/>
<path fill-rule="evenodd" clip-rule="evenodd" d="M3.98569 23.918C4.27583 22.4326 5.05047 21.3504 5.86146 20.2332C6.12315 19.8726 6.48512 19.5388 6.76597 19.2275C10.0248 15.6171 16.3462 12.487 20.8457 10.7315C26.4457 8.54668 32.6105 6.94837 38.6891 5.99851C39.7806 5.82781 40.8902 5.6695 42.0009 5.53908C42.5395 5.47598 45.1575 5.27203 45.4071 5.16781C44.246 5.16781 42.6905 5.0788 41.5775 5.17091C39.9333 5.30696 37.7505 5.32471 36.1953 5.52499C35.882 5.56556 35.6175 5.57204 35.3116 5.59767C33.093 5.7833 29.9615 6.27288 27.7871 6.67795C23.6471 7.44866 18.2395 8.87429 14.4333 10.5867C14.0001 10.7816 13.5572 10.9689 13.122 11.1878C12.8893 11.305 12.6834 11.3813 12.4657 11.4878L10.6079 12.498C9.69047 12.9943 8.05329 14.1008 7.17132 14.8512C6.62935 15.3123 5.71836 16.2213 5.25977 16.7636C4.20259 18.0143 3.45357 19.5599 3.38428 21.1991V21.6937C3.39498 21.9456 3.42202 22.1994 3.46709 22.454C3.51639 22.7318 3.73385 23.487 3.86738 23.7529L3.90681 23.8239C3.96597 23.9149 3.91047 23.8498 3.98569 23.918Z" fill="white"/>
<path d="M23.9212 24.8942L21.757 24.901L21.8545 24.5145C21.5852 24.8635 21.0164 25.0407 20.1528 25.0433C18.8204 25.0475 18.284 24.5286 18.5463 23.49L19.0508 21.4914C19.1629 21.0464 19.4252 20.6568 19.8308 20.3252C20.237 19.9906 20.9945 19.5759 22.0978 19.0754C22.7356 18.7869 23.0773 18.5576 23.1209 18.3849L23.4925 16.9134C23.5753 16.5855 23.4753 16.4249 23.1942 16.4258C22.8747 16.4269 22.6139 16.8224 22.4131 17.6182C22.3767 17.7618 22.3325 17.9723 22.2793 18.2531C22.2325 18.5311 22.1871 18.7447 22.1519 18.8852L19.7945 18.8926L20.2959 16.9058C20.635 15.5627 21.7773 14.8864 23.7218 14.8802C25.5404 14.8748 26.2745 15.5714 25.9207 16.9728L23.9212 24.8942ZM21.9457 23.0407L22.5931 20.4773C21.9959 20.6165 21.6511 20.8692 21.5587 21.2351L21.1024 23.0433C21.0255 23.3478 21.1333 23.4993 21.4263 23.4985C21.6956 23.4976 21.8691 23.345 21.9457 23.0407Z" fill="white"/>
<path d="M28.7304 24.8797L26.2851 24.8874L29.3882 12.5942L31.8335 12.5867L28.7304 24.8797Z" fill="white"/>
<path d="M37.3824 16.3825L35.9764 16.3867L33.8367 24.8641L31.4004 24.8715L33.5401 16.3943L32.7139 16.3968L33.0863 14.9222L33.9122 14.9196C34.1331 14.0447 34.395 13.4357 34.701 13.0926C35.0108 12.7464 35.71 12.5746 36.8021 12.5715L38.3455 12.5664L38.0077 13.9039L37.5364 13.9053C37.1176 13.9067 36.8398 13.9864 36.6953 14.1419C36.5528 14.3002 36.4381 14.5577 36.3488 14.912L37.7545 14.9075L37.3824 16.3825Z" fill="white"/>
<path d="M42.1869 24.8378L40.0226 24.8446L40.1201 24.4581C39.8505 24.8071 39.2821 24.9843 38.4184 24.9868C37.0857 24.9911 36.5497 24.4722 36.8119 23.4336L37.3164 21.435C37.4286 20.9899 37.6908 20.6004 38.0962 20.2688C38.5026 19.9342 39.2598 19.5192 40.3635 19.0192C41.0012 18.7305 41.3429 18.5015 41.3866 18.3285L41.7581 16.857C41.8407 16.5291 41.7407 16.3688 41.4598 16.3694C41.1401 16.3705 40.8795 16.766 40.6787 17.5618C40.6424 17.7054 40.5981 17.9161 40.5446 18.1967C40.4979 18.4747 40.4528 18.6882 40.4173 18.8288L38.0601 18.8361L38.5615 16.8494C38.9004 15.5063 40.0426 14.8299 41.9874 14.824C43.806 14.8184 44.5401 15.5147 44.1863 16.9164L42.1869 24.8378ZM40.2114 22.9843L40.8584 20.4209C40.2612 20.5601 39.9164 20.8127 39.8241 21.1787L39.3677 22.9868C39.2908 23.2913 39.399 23.4432 39.6919 23.442C39.9612 23.4412 40.1345 23.2888 40.2114 22.9843Z" fill="white"/>
<path d="M49.6081 14.3208L47.1627 14.3284L47.6146 12.5374L50.0599 12.5298L49.6081 14.3208ZM46.9571 24.8227L44.5115 24.8306L47.0236 14.8785L49.4689 14.8709L46.9571 24.8227Z" fill="white"/>
<path d="M54.7508 24.7987L52.3054 24.8063L54.3221 16.8175C54.3987 16.5133 54.2967 16.3615 54.0156 16.3623C53.7373 16.3632 53.5598 16.5099 53.486 16.8029L51.4652 24.8088L49.0195 24.8164L51.5316 14.8643L53.977 14.8567L53.8928 15.1905C54.2857 14.9201 54.8235 14.7837 55.5029 14.7818C55.9452 14.7803 56.319 14.8992 56.6302 15.1378C56.9418 15.3767 57.0407 15.7271 56.9232 16.1925L54.7508 24.7987Z" fill="white"/>
</svg>
