<svg width="200" height="93" viewBox="0 0 200 93" fill="none" xmlns="http://www.w3.org/2000/svg">
<path fill-rule="evenodd" clip-rule="evenodd" d="M81.7324 84.5257C82.7789 84.5257 83.381 84.6616 84.2789 84.663L110.554 83.5736C111.318 83.4919 112.246 83.3989 113.087 83.318C123.87 82.2856 137.352 79.6616 147.609 76.675C152.92 75.1292 156.699 73.7729 161.891 71.7025C165.511 70.2588 167.83 68.9496 171.173 67.3074L177.161 63.7335C179.384 62.2208 180.565 61.1806 182.568 59.5806C184.008 58.4313 186.635 55.5018 187.781 53.7715C192.288 46.9694 192.486 40.3961 187.18 33.6842L185.962 32.2454C185.33 31.4891 182.302 28.863 181.466 28.3553C182.623 31.1658 183.473 32.875 183.024 36.5489C182.686 39.3215 181.544 41.8454 180.358 43.8264C178.98 46.1292 177.561 47.718 176.032 49.4595C174.349 51.375 170.404 54.6947 168.054 56.356C167.086 57.0412 166.11 57.7609 165.092 58.4384C144.693 72.0201 115.172 80.1616 90.6275 83.4398C89.1852 83.632 82.4106 84.218 81.7324 84.5257Z" fill="#E67516"/>
<path fill-rule="evenodd" clip-rule="evenodd" d="M9.96446 59.2949C10.6898 55.5815 12.6264 52.8759 14.6539 50.0829C15.3081 49.1815 16.213 48.347 16.9152 47.5688C25.0623 38.5428 40.8659 30.7174 52.1145 26.3287C66.1144 20.8667 81.5264 16.8709 96.7229 14.4963C99.4518 14.0695 102.226 13.6737 105.002 13.3477C106.349 13.1899 112.894 12.6801 113.518 12.4195C110.615 12.4195 106.726 12.197 103.944 12.4273C99.8335 12.7674 94.3764 12.8118 90.4884 13.3125C89.7053 13.4139 89.044 13.4301 88.2792 13.4942C82.7327 13.9583 74.9039 15.1822 69.468 16.1949C59.118 18.1216 45.599 21.6857 36.0835 25.9667C35.0004 26.454 33.8933 26.9223 32.8053 27.4695C32.2236 27.7625 31.7088 27.9533 31.1645 28.2195L26.5201 30.7449C24.2264 31.9857 20.1335 34.7519 17.9285 36.628C16.5736 37.7808 14.2961 40.0533 13.1497 41.409C10.5067 44.5357 8.63418 48.3998 8.46094 52.4977V53.7343C8.4877 54.3639 8.5553 54.9984 8.66798 55.635C8.79122 56.3294 9.33488 58.2174 9.66868 58.8822L9.76727 59.0597C9.91516 59.2871 9.77643 59.1245 9.96446 59.2949Z" fill="#E67516"/>
<path d="M59.8029 61.7356L54.3924 61.7525L54.636 60.7863C53.9628 61.6589 52.541 62.1018 50.3818 62.1082C47.0508 62.1187 45.71 60.8215 46.3656 58.2251L47.6269 53.2286C47.9072 52.1159 48.5628 51.142 49.5769 50.3131C50.5924 49.4765 52.486 48.4398 55.2445 47.1884C56.8389 46.4673 57.6931 45.8941 57.8022 45.4624L58.7311 41.7835C58.9382 40.9638 58.6882 40.5624 57.9853 40.5645C57.1867 40.5673 56.5346 41.556 56.0325 43.5455C55.9417 43.9046 55.8311 44.4307 55.698 45.1328C55.5811 45.8279 55.4677 46.3617 55.3797 46.7131L49.486 46.7314L50.7396 41.7645C51.5874 38.4067 54.4431 36.7159 59.3043 36.7004C63.8508 36.687 65.686 38.4286 64.8015 41.9321L59.8029 61.7356ZM54.8642 57.1018L56.4825 50.6934C54.9896 51.0412 54.1276 51.6729 53.8966 52.5877L52.7558 57.1082C52.5635 57.8694 52.8332 58.2483 53.5656 58.2462C54.2389 58.2441 54.6727 57.8624 54.8642 57.1018Z" fill="#E67516"/>
<path d="M71.8264 61.6993L65.713 61.7186L73.4706 30.9854L79.584 30.9668L71.8264 61.6993Z" fill="#E67516"/>
<path d="M93.4559 40.4559L89.9411 40.4664L84.5918 61.6601L78.501 61.6784L83.8503 40.4854L81.7848 40.4918L82.7158 36.8051L84.7806 36.7988C85.3327 34.6115 85.9876 33.0889 86.7524 32.2312C87.527 31.3657 89.2749 30.9361 92.0052 30.9284L95.8636 30.9157L95.0193 34.2594L93.8411 34.2629C92.7939 34.2664 92.0996 34.4657 91.7383 34.8544C91.382 35.2502 91.0953 35.8939 90.8721 36.7798L94.3862 36.7685L93.4559 40.4559Z" fill="#E67516"/>
<path d="M105.467 61.5945L100.056 61.6114L100.3 60.6452C99.6262 61.5178 98.2051 61.9607 96.0459 61.9671C92.7142 61.9776 91.3741 60.6805 92.0297 58.084L93.291 53.0875C93.5713 51.9748 94.2269 51.0009 95.2403 50.172C96.2565 49.3354 98.1494 48.2981 100.909 47.0481C102.503 46.3262 103.357 45.7537 103.466 45.3213L104.395 41.6424C104.602 40.8227 104.352 40.422 103.649 40.4234C102.85 40.4262 102.199 41.415 101.697 43.4044C101.606 43.7635 101.495 44.2903 101.361 44.9917C101.245 45.6868 101.132 46.2206 101.043 46.572L95.1501 46.5903L96.4037 41.6234C97.2509 38.2657 100.106 36.5748 104.968 36.56C109.515 36.5459 111.35 38.2868 110.466 41.791L105.467 61.5945ZM100.528 56.9607L102.146 50.5523C100.653 50.9002 99.791 51.5319 99.56 52.4466L98.4192 56.9671C98.2269 57.7283 98.4973 58.1079 99.2297 58.1051C99.903 58.103 100.336 57.722 100.528 56.9607Z" fill="#E67516"/>
<path d="M124.02 35.3016L117.906 35.3206L119.036 30.8432L125.149 30.8242L124.02 35.3016ZM117.392 61.5566L111.278 61.5763L117.559 36.696L123.672 36.677L117.392 61.5566Z" fill="#E67516"/>
<path d="M136.877 61.497L130.764 61.516L135.805 41.5441C135.997 40.7836 135.742 40.404 135.039 40.4061C134.343 40.4082 133.9 40.7751 133.715 41.5075L128.663 61.5223L122.549 61.5413L128.829 36.661L134.942 36.642L134.732 37.4765C135.714 36.8005 137.059 36.4596 138.757 36.4547C139.863 36.4512 140.797 36.7483 141.576 37.3448C142.354 37.942 142.602 38.8181 142.308 39.9814L136.877 61.497Z" fill="#E67516"/>
</svg>
